<svg width="512" height="512" viewBox="0 0 512 512" fill="none" xmlns="http://www.w3.org/2000/svg">
  <circle cx="256" cy="256" r="256" fill="#f97316"/>
  <path d="M256 128C194.144 128 144 178.144 144 240V336C144 353.673 158.327 368 176 368H336C353.673 368 368 353.673 368 336V240C368 178.144 317.856 128 256 128ZM256 160C299.078 160 334.4 195.322 334.4 238.4V256H177.6V238.4C177.6 195.322 212.922 160 256 160ZM177.6 288H334.4V336C334.4 337.105 333.505 338 332.4 338H179.6C178.495 338 177.6 337.105 177.6 336V288Z" fill="white"/>
</svg>
